<svg width="120" height="120" viewBox="0 0 120 120" fill="none" xmlns="http://www.w3.org/2000/svg">
<g clip-path="url(#clip0_104_2381)">
<path d="M17 77.8333C17.3333 75.6667 19.1667 74 21.5 74C23.8333 74 25.6667 75.6667 26 77.8333H17ZM21.5 72.5C18.1667 72.5 15.5 75.1667 15.5 78.5C15.5 81.8333 18.1667 84.5 21.5 84.5C23.6667 84.5 25.6667 83.3333 26.6667 81.5L25.5 80.8333C24.6667 82.1667 23.1667 83.1667 21.5 83.1667C19.1667 83.1667 17.3333 81.5 17 79.3333H27.5C27.5 79.1667 27.5 78.8333 27.5 78.6667C27.5 75.1667 24.8333 72.5 21.5 72.5Z" fill="black"/>
<path d="M35.1667 77.8333C35.5 75.6667 37.3333 74 39.6667 74C42 74 43.8333 75.6667 44.1667 77.8333H35.1667ZM39.6667 72.5C36.3333 72.5 33.6667 75.1667 33.6667 78.5C33.6667 81.8333 36.3333 84.5 39.6667 84.5C41.8333 84.5 43.8333 83.3333 44.8333 81.5L43.6667 80.8333C42.8333 82.1667 41.3333 83.1667 39.6667 83.1667C37.3333 83.1667 35.5 81.5 35.1667 79.3333H45.6667C45.6667 79.1667 45.6667 78.8333 45.6667 78.6667C45.5 75.1667 42.8333 72.5 39.6667 72.5Z" fill="black"/>
<path d="M84.5 74C86.8333 74 88.6667 75.6667 89 77.8334H80C80.3333 75.6667 82.1667 74 84.5 74ZM89.6667 81.5L88.3333 80.8334C87.5 82.1667 86 83.1667 84.3333 83.1667C82 83.1667 80.1667 81.5 79.8333 79.3334H90.3333C90.3333 79.1667 90.3333 78.8334 90.3333 78.6667C90.3333 75.3334 87.6667 72.6667 84.3333 72.6667C81 72.6667 78.3333 75.3334 78.3333 78.6667C78.3333 82 81 84.6667 84.3333 84.6667C86.6667 84.5 88.6667 83.3334 89.6667 81.5Z" fill="black"/>
<path d="M29.8333 84.1667H31.3333V68.6667H29.8333V84.1667Z" fill="black"/>
<path d="M62.8333 83C60.3333 83 58.3333 81 58.3333 78.5C58.3333 76 60.3333 74 62.8333 74C65.3333 74 67.3333 76 67.3333 78.5C67.3333 81 65.3333 83 62.8333 83ZM68.8333 84.1666V73H67.3333V74.5C66.1667 73.1666 64.6667 72.3333 62.8333 72.3333C59.5 72.3333 56.8333 75 56.8333 78.3333C56.8333 81.6666 59.5 84.3333 62.8333 84.3333C64.6667 84.3333 66.3333 83.5 67.3333 82.1666V84H68.8333V84.1666Z" fill="black"/>
<path d="M73.3333 84.1667H74.6667V74.3333H76.8333V73H74.6667V68.6667H73.3333V73H71.1667V74.3333H73.3333V84.1667Z" fill="black"/>
<path d="M64.1667 88.5H62.8333V92.8333H60.6667V94.1667H62.8333V103.833H64.1667V94.1667H66.3333V92.8333H64.1667V88.5Z" fill="black"/>
<path d="M51.3333 80.6667L48 73H46.3333L51.3333 84.1667L56.1667 73H54.5L51.3333 80.6667Z" fill="black"/>
<path d="M98.3333 83C95.8333 83 93.8333 81 93.8333 78.5C93.8333 76 95.8333 74 98.3333 74C100.833 74 102.833 76 102.833 78.5C102.833 81 100.833 83 98.3333 83ZM102.833 68.6667V74.5C101.667 73.1667 100.167 72.3333 98.3333 72.3333C95 72.3333 92.3333 75 92.3333 78.3333C92.3333 81.6667 95 84.3333 98.3333 84.3333C100.167 84.3333 101.833 83.5 102.833 82.1667V84H104.333V68.5H102.833V68.6667Z" fill="black"/>
<path d="M98.3333 102.833C95.8333 102.833 93.8333 100.833 93.8333 98.3333C93.8333 95.8333 95.8333 93.8333 98.3333 93.8333C100.833 93.8333 102.833 95.8333 102.833 98.3333C102.833 100.833 100.833 102.833 98.3333 102.833ZM102.833 94.3333C101.667 93 100.167 92.1666 98.3333 92.1666C95 92.1666 92.3333 94.8333 92.3333 98.1666C92.3333 101.5 95 104.167 98.3333 104.167C100.167 104.167 101.833 103.333 102.833 102V103.833H104.333V88.3333H102.833V94.3333Z" fill="black"/>
<path d="M73.6667 92.1667C72.3333 92.1667 71 92.6667 70.1667 93.6667V88.5H68.6667V104H70.1667V97.1667C70.1667 95.1667 71.6667 93.6667 73.6667 93.6667C75.6667 93.6667 77.1667 95.1667 77.1667 97.1667V104H78.6667V97.1667C78.6667 94.3333 76.3333 92.1667 73.6667 92.1667Z" fill="black"/>
<path d="M88.3333 93.6667V92.8334H86.8333V104H88.3333V97.1667C88.3333 95.1667 89.8333 93.6667 91.8333 93.6667V92.1667C90.5 92.1667 89.3333 92.6667 88.3333 93.6667Z" fill="black"/>
<path d="M82 103.833H83.5V92.8333H82V103.833Z" fill="black"/>
<path d="M82.8333 89.5C82.3333 89.5 82 89.8333 82 90.3333C82 90.8333 82.3333 91.1667 82.8333 91.1667C83.3333 91.1667 83.6667 90.8333 83.6667 90.3333C83.6667 90 83.3333 89.5 82.8333 89.5Z" fill="black"/>
<path d="M0 0V119.833H119.833V0H0ZM116.667 116.667H3.16667V3.16667H116.667V116.667Z" fill="black"/>
</g>
<defs>
<clipPath id="clip0_104_2381">
<rect width="120" height="120" fill="white"/>
</clipPath>
</defs>
</svg>
