<svg width="216" height="84" viewBox="0 0 216 84" fill="none" xmlns="http://www.w3.org/2000/svg">
<g clip-path="url(#clip0_104_2449)">
<path d="M34.4285 28.2828C31.0703 28.2165 26.2757 28.1211 22.1708 28.7011C18.0349 29.2856 11.7531 30.9587 4.4757 36.28C3.65865 34.1015 1.8016 28.2298 4.11404 21.7464C4.40159 20.9408 5.24461 18.7471 7.06492 16.377C12.0046 9.94553 19.5005 8.2503 22.6623 7.53443C25.2503 6.94934 27.64 6.70798 28.9891 6.64416C31.7138 6.51527 34.9085 6.53233 36.929 6.56582C40.7261 6.62837 45.4605 6.87984 50.9195 6.14059C58.8392 5.06835 64.9303 2.28825 68.9541 0.119141C69.7338 3.27708 70.3628 7.94386 69.1733 13.221C68.5957 15.7837 67.8869 18.9278 65.3211 21.7509C63.2633 24.0147 61.0243 25.2538 60.0179 25.7719C57.6687 26.9806 55.6527 27.3989 54.0041 27.7407C51.2774 28.3062 49.1417 28.3707 47.7305 28.4029C41.6818 28.54 37.3363 28.3403 34.4285 28.2828Z" fill="black"/>
<path d="M21.5862 70.7489C16.4705 79.0127 2.78776 85.4828 0.592497 83.272C-1.09734 81.5704 4.76451 75.4757 6.239 65.3302C6.59369 62.8907 7.00601 60.4593 7.3759 58.0217C8.03397 53.6847 8.12518 52.8873 8.63884 51.4689C9.0765 50.2608 10.1057 47.5123 12.6474 45.0462C13.4696 44.2488 15.1385 42.8133 18.0609 41.6437C23.43 39.4961 27.2948 40.5431 35.668 40.6966C37.5326 40.7307 42.6996 40.7889 47.7045 40.2455C54.6976 39.486 60.2624 37.6612 63.9397 36.1973C64.105 38.3196 64.3141 44.669 60.1116 50.4238C56.649 55.1658 51.9671 57.0676 49.8282 57.9421C46.9793 59.1066 43.8821 59.7978 40.5969 60.0373C36.7004 60.321 35.6813 59.6961 32.9546 60.5415C30.2799 61.3711 28.5045 62.8982 26.9547 64.2586C23.7758 67.0494 22.1056 69.9098 21.5862 70.7489Z" fill="black"/>
<path d="M96.991 35.4965H99.8709V39.9093H96.991V51.2231H90.9347V39.9093H88.6786V35.4965H90.9347V34.7857C90.9347 34.1438 91.0037 33.438 91.1424 32.6678C91.2811 31.8976 91.5408 31.2683 91.9215 30.7798C92.3021 30.2914 92.8367 29.8965 93.5245 29.5951C94.2124 29.2937 95.2194 29.1434 96.5457 29.1434C97.6047 29.1434 99.1438 29.2666 101.162 29.5136L100.494 33.1568C99.7714 33.038 99.1881 32.9793 98.7422 32.9793C98.1982 32.9793 97.8067 33.0709 97.5692 33.2535C97.3317 33.4361 97.1632 33.7249 97.0644 34.1198C97.0157 34.3365 96.991 34.7952 96.991 35.4965Z" fill="black"/>
<path d="M102.306 29.5136H108.362V51.223H102.306V29.5136Z" fill="black"/>
<path d="M111.479 43.404C111.479 41.0049 112.291 39.0285 113.914 37.4735C115.537 35.9186 117.729 35.1414 120.49 35.1414C123.647 35.1414 126.032 36.0544 127.645 37.8811C128.942 39.352 129.59 41.1635 129.59 43.3155C129.59 45.7342 128.786 47.7163 127.177 49.2612C125.569 50.806 123.345 51.5788 120.505 51.5788C117.971 51.5788 115.923 50.9368 114.359 49.6535C112.439 48.0638 111.479 45.9807 111.479 43.404ZM117.536 43.3888C117.536 44.7909 117.821 45.8271 118.39 46.4988C118.959 47.1704 119.674 47.5059 120.535 47.5059C121.406 47.5059 122.121 47.1755 122.68 46.5139C123.24 45.8524 123.519 44.7909 123.519 43.3301C123.519 41.9678 123.237 40.9531 122.673 40.2871C122.109 39.6205 121.411 39.2876 120.58 39.2876C119.699 39.2876 118.971 39.6256 118.398 40.3017C117.823 40.9777 117.536 42.007 117.536 43.3888Z" fill="black"/>
<path d="M130.183 35.4965H136.026L138.553 45.3981L141.751 35.4965H147.211L150.545 45.4227L153.087 35.4965H158.893L153.086 51.223H147.71L144.517 41.76L141.431 51.223H136.03L130.183 35.4965Z" fill="black"/>
<path d="M159.576 46.8545L165.574 46.2915C165.821 47.0023 166.168 47.511 166.613 47.8168C167.058 48.1226 167.652 48.2761 168.394 48.2761C169.205 48.2761 169.834 48.1043 170.28 47.7587C170.626 47.5028 170.799 47.1824 170.799 46.7976C170.799 46.3635 170.572 46.0287 170.116 45.7917C169.789 45.6243 168.924 45.4171 167.518 45.1713C165.42 44.8067 163.963 44.4687 163.147 44.1578C162.33 43.8469 161.642 43.3219 161.083 42.582C160.524 41.8427 160.244 40.9992 160.244 40.0527C160.244 39.0171 160.547 38.1243 161.15 37.375C161.754 36.6256 162.585 36.0658 163.644 35.6962C164.703 35.3265 166.123 35.1414 167.905 35.1414C169.786 35.1414 171.173 35.2848 172.069 35.5711C172.964 35.8573 173.712 36.3015 174.31 36.9036C174.909 37.5058 175.406 38.3202 175.802 39.347L170.072 39.9099C169.924 39.4063 169.676 39.0361 169.33 38.7991C168.854 38.4832 168.281 38.3253 167.607 38.3253C166.925 38.3253 166.427 38.4459 166.116 38.6873C165.804 38.9293 165.648 39.2225 165.648 39.5675C165.648 39.9516 165.846 40.2423 166.242 40.44C166.638 40.6365 167.499 40.8141 168.825 40.972C170.834 41.1982 172.329 41.5142 173.308 41.9185C174.288 42.3236 175.037 42.9004 175.557 43.6492C176.077 44.3992 176.337 45.2224 176.337 46.1197C176.337 47.0276 176.062 47.9103 175.512 48.7677C174.963 49.6257 174.098 50.3088 172.914 50.8168C171.732 51.3241 170.121 51.5781 168.082 51.5781C165.202 51.5781 163.152 51.1687 161.929 50.3492C160.707 49.5297 159.923 48.3646 159.576 46.8545Z" fill="black"/>
<path d="M179.23 45.1808H185.688V51.2224H179.23V45.1808Z" fill="black"/>
<path d="M194.847 40.5904L189.072 39.9839C189.29 38.9767 189.604 38.1844 190.015 37.6069C190.425 37.0294 191.017 36.5283 191.789 36.1037C192.343 35.7979 193.105 35.561 194.075 35.3929C195.044 35.2248 196.094 35.1414 197.222 35.1414C199.033 35.1414 200.488 35.2425 201.586 35.4447C202.685 35.6469 203.601 36.069 204.333 36.7109C204.847 37.1551 205.253 37.7844 205.55 38.5989C205.847 39.4133 205.995 40.1911 205.995 40.931V47.8762C205.995 48.6167 206.042 49.1967 206.137 49.6163C206.231 50.0358 206.436 50.5716 206.753 51.223H201.082C200.855 50.818 200.706 50.5097 200.637 50.2974C200.568 50.0851 200.498 49.7521 200.429 49.2978C199.638 50.0579 198.851 50.6007 198.069 50.9267C197 51.3614 195.758 51.5781 194.343 51.5781C192.462 51.5781 191.035 51.1434 190.06 50.2753C189.085 49.4071 188.597 48.3355 188.597 47.0617C188.597 45.8669 188.949 44.885 189.651 44.1148C190.354 43.3446 191.65 42.7722 193.541 42.3969C195.807 41.9426 197.276 41.6241 197.95 41.4415C198.623 41.2589 199.335 41.0194 200.087 40.7231C200.087 39.9832 199.934 39.4645 199.627 39.1688C199.32 38.8731 198.781 38.7246 198.009 38.7246C197.019 38.7246 196.277 38.8825 195.782 39.1985C195.396 39.4455 195.084 39.9093 194.847 40.5904ZM200.087 43.7591C199.256 44.0554 198.39 44.317 197.489 44.5438C196.262 44.8699 195.485 45.1902 195.158 45.5061C194.822 45.8322 194.654 46.2024 194.654 46.6169C194.654 47.0908 194.82 47.4781 195.151 47.7795C195.482 48.0809 195.97 48.2313 196.613 48.2313C197.286 48.2313 197.912 48.0683 198.491 47.7429C199.07 47.4175 199.481 47.0194 199.723 46.5506C199.966 46.0817 200.087 45.472 200.087 44.7214V43.7591H200.087Z" fill="black"/>
<path d="M209.84 29.5136H215.882V33.6155H209.84V29.5136ZM209.84 35.4965H215.882V51.223H209.84V35.4965Z" fill="black"/>
</g>
<defs>
<clipPath id="clip0_104_2449">
<rect width="216" height="84" fill="white"/>
</clipPath>
</defs>
</svg>
