<svg width="251" height="90" viewBox="0 0 251 90" fill="none" xmlns="http://www.w3.org/2000/svg">
<path d="M126.886 38.9119L121.497 39.8665C121.272 39.1771 120.914 38.5208 120.423 37.8977C119.946 37.2746 119.296 36.7642 118.474 36.3665C117.652 35.9687 116.625 35.7699 115.392 35.7699C113.708 35.7699 112.303 36.1477 111.176 36.9034C110.049 37.6458 109.486 38.607 109.486 39.7869C109.486 40.8078 109.864 41.6297 110.619 42.2528C111.375 42.8759 112.595 43.3864 114.278 43.7841L119.131 44.8977C121.941 45.5473 124.036 46.5483 125.415 47.9006C126.794 49.2528 127.483 51.0095 127.483 53.1705C127.483 55 126.953 56.6307 125.892 58.0625C124.845 59.4811 123.38 60.5947 121.497 61.4034C119.628 62.2121 117.46 62.6165 114.994 62.6165C111.574 62.6165 108.783 61.8873 106.622 60.429C104.461 58.9574 103.135 56.8693 102.645 54.1648L108.392 53.2898C108.75 54.7879 109.486 55.9214 110.599 56.6903C111.713 57.446 113.165 57.8239 114.955 57.8239C116.903 57.8239 118.461 57.4195 119.628 56.6108C120.795 55.7888 121.378 54.7879 121.378 53.608C121.378 52.6534 121.02 51.8513 120.304 51.2017C119.601 50.5521 118.521 50.0616 117.062 49.7301L111.892 48.5966C109.042 47.947 106.934 46.9129 105.568 45.4943C104.216 44.0758 103.54 42.2794 103.54 40.1051C103.54 38.3021 104.044 36.7244 105.051 35.3722C106.059 34.0199 107.451 32.9659 109.227 32.2102C111.004 31.4413 113.039 31.0568 115.332 31.0568C118.634 31.0568 121.232 31.7727 123.128 33.2045C125.024 34.6231 126.277 36.5256 126.886 38.9119ZM146.887 62.6165C144.023 62.6165 141.524 61.9602 139.39 60.6477C137.255 59.3352 135.598 57.4991 134.418 55.1392C133.238 52.7794 132.648 50.0218 132.648 46.8665C132.648 43.6979 133.238 40.9271 134.418 38.554C135.598 36.1809 137.255 34.3381 139.39 33.0256C141.524 31.7131 144.023 31.0568 146.887 31.0568C149.751 31.0568 152.25 31.7131 154.384 33.0256C156.519 34.3381 158.176 36.1809 159.356 38.554C160.536 40.9271 161.126 43.6979 161.126 46.8665C161.126 50.0218 160.536 52.7794 159.356 55.1392C158.176 57.4991 156.519 59.3352 154.384 60.6477C152.25 61.9602 149.751 62.6165 146.887 62.6165ZM146.907 57.625C148.763 57.625 150.301 57.1345 151.521 56.1534C152.74 55.1723 153.642 53.8665 154.225 52.2358C154.822 50.6051 155.12 48.8087 155.12 46.8466C155.12 44.8977 154.822 43.108 154.225 41.4773C153.642 39.8333 152.74 38.5142 151.521 37.5199C150.301 36.5256 148.763 36.0284 146.907 36.0284C145.038 36.0284 143.487 36.5256 142.254 37.5199C141.034 38.5142 140.126 39.8333 139.529 41.4773C138.946 43.108 138.654 44.8977 138.654 46.8466C138.654 48.8087 138.946 50.6051 139.529 52.2358C140.126 53.8665 141.034 55.1723 142.254 56.1534C143.487 57.1345 145.038 57.625 146.907 57.625ZM173.709 43.8636V62H167.763V31.4545H173.47V36.4261H173.848C174.551 34.8087 175.651 33.5095 177.149 32.5284C178.661 31.5473 180.563 31.0568 182.857 31.0568C184.938 31.0568 186.761 31.4943 188.325 32.3693C189.89 33.2311 191.103 34.517 191.964 36.2273C192.826 37.9375 193.257 40.0521 193.257 42.571V62H187.311V43.2869C187.311 41.0729 186.734 39.3428 185.581 38.0966C184.428 36.8371 182.843 36.2074 180.828 36.2074C179.449 36.2074 178.223 36.5057 177.149 37.1023C176.089 37.6989 175.247 38.5739 174.624 39.7273C174.014 40.8674 173.709 42.2462 173.709 43.8636ZM210.121 62.6761C208.185 62.6761 206.435 62.3182 204.871 61.6023C203.306 60.8731 202.067 59.8191 201.152 58.4403C200.25 57.0616 199.8 55.3712 199.8 53.3693C199.8 51.6458 200.131 50.2273 200.794 49.1136C201.457 48 202.352 47.1184 203.479 46.4688C204.606 45.8191 205.865 45.3286 207.257 44.9972C208.649 44.6657 210.068 44.4138 211.513 44.2415C213.342 44.0294 214.827 43.857 215.967 43.7244C217.107 43.5786 217.936 43.3466 218.453 43.0284C218.97 42.7102 219.229 42.1932 219.229 41.4773V41.3381C219.229 39.6013 218.738 38.2557 217.757 37.3011C216.789 36.3466 215.344 35.8693 213.422 35.8693C211.42 35.8693 209.842 36.3134 208.689 37.2017C207.549 38.0767 206.76 39.0511 206.322 40.125L200.734 38.8523C201.397 36.9962 202.365 35.4981 203.638 34.358C204.924 33.2045 206.402 32.3693 208.072 31.8523C209.743 31.322 211.5 31.0568 213.342 31.0568C214.562 31.0568 215.855 31.2027 217.22 31.4943C218.599 31.7727 219.885 32.2898 221.078 33.0455C222.285 33.8011 223.272 34.8816 224.041 36.2869C224.81 37.679 225.195 39.4886 225.195 41.7159V62H219.388V57.8239H219.149C218.765 58.5928 218.188 59.3485 217.419 60.0909C216.65 60.8333 215.662 61.4498 214.456 61.9403C213.25 62.4309 211.804 62.6761 210.121 62.6761ZM211.413 57.9034C213.057 57.9034 214.463 57.5786 215.629 56.929C216.809 56.2794 217.704 55.4309 218.314 54.3835C218.937 53.3229 219.249 52.1894 219.249 50.983V47.0455C219.036 47.2576 218.625 47.4564 218.016 47.642C217.419 47.8144 216.736 47.9669 215.967 48.0994C215.198 48.2187 214.449 48.3314 213.72 48.4375C212.991 48.5303 212.381 48.6098 211.891 48.6761C210.737 48.822 209.683 49.0672 208.729 49.4119C207.787 49.7566 207.032 50.2538 206.462 50.9034C205.905 51.5398 205.626 52.3883 205.626 53.4489C205.626 54.9205 206.17 56.0341 207.257 56.7898C208.344 57.5322 209.73 57.9034 211.413 57.9034ZM233.114 62V31.4545H238.862V36.3068H239.18C239.737 34.6629 240.718 33.3703 242.123 32.429C243.541 31.4744 245.146 30.9972 246.935 30.9972C247.307 30.9972 247.744 31.0104 248.248 31.0369C248.765 31.0634 249.169 31.0966 249.461 31.1364V36.8239C249.222 36.7576 248.798 36.6847 248.188 36.6051C247.578 36.5123 246.969 36.4659 246.359 36.4659C244.953 36.4659 243.701 36.7642 242.6 37.3608C241.513 37.9441 240.651 38.7595 240.015 39.8068C239.379 40.8409 239.06 42.0208 239.06 43.3466V62H233.114Z" fill="black"/>
<rect x="23" y="23" width="44" height="44" rx="22" fill="black"/>
<rect width="90" height="90" rx="45" fill="black" fill-opacity="0.3"/>
</svg>
