<svg width="218" height="59" viewBox="0 0 218 59" fill="none" xmlns="http://www.w3.org/2000/svg">
<g clip-path="url(#clip0_104_2471)">
<path d="M0.034729 7.19641C3.59385 7.19641 5.02813 5.7148 5.02813 0H8.64037V6.77309H15.6524V11.6413H8.69349V30.1085C8.69349 37.6753 8.58725 40.4269 13.5806 40.5856C14.3243 40.5856 15.2274 40.5327 15.8649 40.5327V45.4538C14.9618 45.5596 14.0587 45.6126 13.1026 45.6126C4.17819 45.5596 3.222 40.4269 3.222 31.9605V11.6413H0.034729L0.034729 7.19641Z" fill="black"/>
<path d="M26.0641 33.548V18.2556C26.0641 10.2655 30.0482 6.29688 36.1041 6.29688C40.7256 6.29688 43.541 8.94261 44.391 10.7417V6.77311H49.5437V45.1363H44.391V41.1677C43.4879 42.9668 40.6725 45.6655 36.1041 45.6655C29.8889 45.6655 26.0641 41.591 26.0641 33.548V33.548ZM44.0191 33.2305V18.4144C44.0191 13.4933 41.6287 10.9534 37.7508 10.9534C33.7667 10.9534 31.4825 13.5991 31.4825 18.626V33.2305C31.4825 38.3632 33.7667 40.9561 37.7508 40.9561C41.7349 40.9561 44.0723 38.3103 44.0191 33.2305V33.2305Z" fill="black"/>
<path d="M66.5956 45.1363H61.1241V6.77311H66.33V10.7946C67.2331 8.94261 69.9954 6.29688 74.5638 6.29688C81.6821 6.29688 84.6569 11.0063 84.6569 19.5785V45.1363H79.1854V19.8431C79.1854 14.0754 78.1761 10.9534 72.8639 10.9534C68.6142 10.9534 66.5956 13.4933 66.5956 18.626V45.1363Z" fill="black"/>
<path d="M96.5029 33.548V18.2556C96.5029 10.583 100.221 6.40271 105.959 6.40271C110.474 6.40271 113.767 8.5193 114.83 10.6888V6.7202H119.983V47.1471C119.983 54.7139 117.38 59 108.296 59C99.2121 59 96.8217 54.2377 96.8217 49.3695H102.187C102.187 52.174 103.887 54.661 108.296 54.661C112.705 54.661 114.458 52.5444 114.458 48.3641V41.1677C113.555 43.0198 111.111 45.6655 106.49 45.6655C100.381 45.6655 96.5029 41.5911 96.5029 33.548ZM114.511 32.9659V18.5202C114.511 13.3875 112.174 10.9534 108.243 10.9534C104.312 10.9534 102.028 13.5462 102.028 18.626V32.7014C102.028 38.3632 104.099 41.1148 108.296 41.1148C112.333 41.1148 114.511 38.522 114.511 32.9659Z" fill="black"/>
<path d="M155.839 27.7803H137.778V32.913C137.778 37.887 139.903 40.9561 144.1 40.9561C147.818 40.9561 150.368 38.6278 150.368 35.2413V34.0242H155.892V34.6592C155.892 40.7444 151.855 45.7184 144.153 45.7184C136.663 45.7184 132.413 40.7973 132.413 33.0718V18.5202C132.413 11.0592 136.663 6.19104 144.153 6.19104C151.483 6.19104 155.892 11.0592 155.892 18.5202L155.839 27.7803ZM144.1 11.0063C140.381 11.0063 137.778 13.3345 137.778 17.7794V23.7058H150.368V17.8852C150.368 13.5462 147.765 11.0063 144.1 11.0063V11.0063Z" fill="black"/>
<path d="M173.476 45.1363H168.004V6.77311H173.21V10.7946C174.113 8.94261 176.875 6.29688 181.444 6.29688C188.562 6.29688 191.537 11.0063 191.537 19.5785V45.1363H186.012V19.8431C186.012 14.0754 185.003 10.9534 179.691 10.9534C175.441 10.9534 173.422 13.4933 173.422 18.626L173.476 45.1363Z" fill="black"/>
<path d="M201.789 7.19641C205.348 7.19641 206.783 5.7148 206.783 0H210.448V6.77309H217.46V11.6413H210.448V30.1085C210.448 37.6753 210.289 40.4269 215.335 40.5856C216.079 40.5856 216.982 40.5327 217.619 40.5327V45.4538C216.716 45.5596 215.813 45.6126 214.857 45.6126C205.933 45.6126 204.976 40.4798 204.976 32.0135V11.6413H201.842L201.789 7.19641Z" fill="black"/>
</g>
<defs>
<clipPath id="clip0_104_2471">
<rect width="218" height="59" fill="white"/>
</clipPath>
</defs>
</svg>
